<svg width="32" height="32" viewBox="0 0 32 32" fill="none" xmlns="http://www.w3.org/2000/svg">
<path d="M4 27H28M9 22H17M17 9C19.0988 9 21.1444 9.66037 22.8471 10.8876C24.5498 12.1148 25.8231 13.8466 26.4868 15.8377C27.1505 17.8288 27.1709 19.9783 26.5451 21.9817C25.9193 23.985 24.6791 25.7407 23 27M10 3H16C16.5523 3 17 3.44772 17 4V17C17 17.5523 16.5523 18 16 18H10C9.44772 18 9 17.5523 9 17V4C9 3.44772 9.44772 3 10 3Z" stroke="#0A0A0A" stroke-width="1.5" stroke-linecap="round" stroke-linejoin="round"/>
</svg>
