<svg width="36" height="36" viewBox="0 0 36 36" fill="none" xmlns="http://www.w3.org/2000/svg">
<path d="M14.625 6.75H7.875C7.25368 6.75 6.75 7.25368 6.75 7.875V14.625C6.75 15.2463 7.25368 15.75 7.875 15.75H14.625C15.2463 15.75 15.75 15.2463 15.75 14.625V7.875C15.75 7.25368 15.2463 6.75 14.625 6.75Z" stroke="white" stroke-width="1.5" stroke-linecap="round" stroke-linejoin="round"/>
<path d="M28.125 6.75H21.375C20.7537 6.75 20.25 7.25368 20.25 7.875V14.625C20.25 15.2463 20.7537 15.75 21.375 15.75H28.125C28.7463 15.75 29.25 15.2463 29.25 14.625V7.875C29.25 7.25368 28.7463 6.75 28.125 6.75Z" stroke="white" stroke-width="1.5" stroke-linecap="round" stroke-linejoin="round"/>
<path d="M14.625 20.25H7.875C7.25368 20.25 6.75 20.7537 6.75 21.375V28.125C6.75 28.7463 7.25368 29.25 7.875 29.25H14.625C15.2463 29.25 15.75 28.7463 15.75 28.125V21.375C15.75 20.7537 15.2463 20.25 14.625 20.25Z" stroke="white" stroke-width="1.5" stroke-linecap="round" stroke-linejoin="round"/>
<path d="M28.125 20.25H21.375C20.7537 20.25 20.25 20.7537 20.25 21.375V28.125C20.25 28.7463 20.7537 29.25 21.375 29.25H28.125C28.7463 29.25 29.25 28.7463 29.25 28.125V21.375C29.25 20.7537 28.7463 20.25 28.125 20.25Z" stroke="white" stroke-width="1.5" stroke-linecap="round" stroke-linejoin="round"/>
</svg>
