<svg width="36" height="36" viewBox="0 0 36 36" fill="none" xmlns="http://www.w3.org/2000/svg">
<path d="M12.3752 19.125C13.4877 19.125 14.5753 19.4549 15.5003 20.073C16.4253 20.6911 17.1463 21.5696 17.572 22.5974C17.9978 23.6252 18.1092 24.7562 17.8921 25.8474C17.6751 26.9385 17.1394 27.9408 16.3527 28.7275C15.566 29.5141 14.5637 30.0499 13.4726 30.2669C12.3814 30.484 11.2504 30.3726 10.2226 29.9468C9.19478 29.5211 8.31627 28.8001 7.69819 27.8751C7.0801 26.9501 6.7502 25.8625 6.7502 24.75V23.8036M23.6252 19.125C22.5127 19.125 21.4251 19.4549 20.5001 20.073C19.5751 20.6911 18.8541 21.5696 18.4284 22.5974C18.0026 23.6252 17.8912 24.7562 18.1083 25.8474C18.3253 26.9385 18.8611 27.9408 19.6477 28.7275C20.4344 29.5141 21.4367 30.0499 22.5278 30.2669C23.619 30.484 24.75 30.3726 25.7778 29.9468C26.8056 29.5211 27.6841 28.8001 28.3022 27.8751C28.9203 26.9501 29.2502 25.8625 29.2502 24.75V23.8036M10.1252 24.1875H9.0002C7.40684 24.1889 5.86433 23.6266 4.64566 22.6002C3.42699 21.5737 2.61073 20.1492 2.34133 18.5788C2.07193 17.0083 2.36677 15.3932 3.17365 14.0193C3.98054 12.6453 5.24746 11.6011 6.7502 11.0714V10.125C6.7502 8.63316 7.34284 7.20242 8.39773 6.14752C9.45262 5.09263 10.8834 4.5 12.3752 4.5C13.867 4.5 15.2978 5.09263 16.3527 6.14752C17.4076 7.20242 18.0002 8.63316 18.0002 10.125M18.0002 10.125V24.75M18.0002 10.125C18.0002 8.63316 18.5928 7.20242 19.6477 6.14752C20.7026 5.09263 22.1334 4.5 23.6252 4.5C25.117 4.5 26.5478 5.09263 27.6027 6.14752C28.6576 7.20242 29.2502 8.63316 29.2502 10.125V11.0714C30.753 11.6011 32.0199 12.6453 32.8268 14.0193C33.6336 15.3932 33.9285 17.0083 33.6591 18.5788C33.3897 20.1492 32.5734 21.5737 31.3547 22.6002C30.1361 23.6266 28.5936 24.1889 27.0002 24.1875H25.8752M28.1252 15.75H27.5627C26.5184 15.75 25.5169 15.3352 24.7785 14.5967C24.04 13.8583 23.6252 12.8568 23.6252 11.8125V11.25M7.8752 15.75H8.4377C9.48199 15.75 10.4835 15.3352 11.2219 14.5967C11.9604 13.8583 12.3752 12.8568 12.3752 11.8125V11.25" stroke="currentColor" stroke-width="1.5" stroke-linecap="round" stroke-linejoin="round"/>
</svg>
