<svg width="16" height="16" viewBox="0 0 16 16" fill="none" xmlns="http://www.w3.org/2000/svg">
<path d="M8.00094 10.5C9.38165 10.5 10.5009 9.38067 10.5009 7.99996C10.5009 6.61925 9.38165 5.49996 8.00094 5.49996C6.62022 5.49996 5.50094 6.61925 5.50094 7.99996C5.50094 9.38067 6.62022 10.5 8.00094 10.5Z" stroke="currentColor" stroke-width="1.5" stroke-linecap="round" stroke-linejoin="round"/>
<path d="M2.59031 11.1306C2.31405 10.6547 2.10239 10.1442 1.96094 9.61246L3.00969 8.29996C2.99781 8.0993 2.99781 7.89812 3.00969 7.69746L1.96156 6.38496C2.10277 5.85314 2.314 5.34242 2.58969 4.86621L4.25906 4.67871C4.39237 4.52852 4.5345 4.38639 4.68469 4.25309L4.87219 2.58434C5.34771 2.30996 5.85759 2.09999 6.38844 1.95996L7.70094 3.00871C7.90159 2.99684 8.10278 2.99684 8.30344 3.00871L9.61594 1.96059C10.1478 2.1018 10.6585 2.31302 11.1347 2.58871L11.3222 4.25809C11.4724 4.39139 11.6145 4.53352 11.7478 4.68371L13.4166 4.87121C13.6928 5.34706 13.9045 5.85759 14.0459 6.38934L12.9972 7.70184C13.0091 7.90249 13.0091 8.10368 12.9972 8.30434L14.0453 9.61684C13.9051 10.1485 13.6949 10.6592 13.4203 11.1356L11.7509 11.3231C11.6176 11.4733 11.4755 11.6154 11.3253 11.7487L11.1378 13.4175C10.662 13.6937 10.1514 13.9054 9.61969 14.0468L8.30719 12.9981C8.10653 13.01 7.90535 13.01 7.70469 12.9981L6.39219 14.0462C5.86052 13.906 5.34981 13.6958 4.87344 13.4212L4.68594 11.7518C4.53575 11.6185 4.39362 11.4764 4.26031 11.3262L2.59031 11.1306Z" stroke="currentColor" stroke-width="1.5" stroke-linecap="round" stroke-linejoin="round"/>
</svg>
