<svg width="32" height="32" viewBox="0 0 32 32" fill="none" xmlns="http://www.w3.org/2000/svg">
<path d="M12 29.3334L20 29.3334M12 2.66675L20 2.66675M16 26.0001C11.6167 26.0001 9.42504 26.0001 7.9499 24.7895C7.67985 24.5678 7.43223 24.3202 7.21061 24.0502C6 22.575 6 20.3834 6 16.0001C6 11.6168 6 9.42512 7.21061 7.94998C7.43223 7.67994 7.67985 7.43232 7.9499 7.21069C9.42504 6.00008 11.6167 6.00008 16 6.00008C20.3833 6.00008 22.575 6.00008 24.0501 7.21069C24.3201 7.43232 24.5678 7.67994 24.7894 7.94998C26 9.42512 26 11.6168 26 16.0001C26 20.3834 26 22.575 24.7894 24.0502C24.5678 24.3202 24.3201 24.5678 24.0501 24.7895C22.575 26.0001 20.3833 26.0001 16 26.0001ZM15.5173 12.4748C14.8612 12.0055 13.7689 11.7108 12.5175 12.4419C10.8751 13.4014 10.5035 16.5667 14.2918 19.2371C15.0133 19.7458 15.3741 20.0001 16 20.0001C16.6259 20.0001 16.9867 19.7458 17.7082 19.2371C21.4965 16.5667 21.1249 13.4014 19.4825 12.4419C18.2311 11.7108 17.1388 12.0055 16.4827 12.4748C16.2137 12.6672 16.0791 12.7634 16 12.7634C15.9209 12.7634 15.7863 12.6672 15.5173 12.4748Z" stroke="white" stroke-width="1.5" stroke-linecap="round"/>
</svg>
