<svg width="36" height="36" viewBox="0 0 36 36" fill="none" xmlns="http://www.w3.org/2000/svg">
<path d="M12.9375 16.875C13.8695 16.875 14.625 16.1195 14.625 15.1875C14.625 14.2555 13.8695 13.5 12.9375 13.5C12.0055 13.5 11.25 14.2555 11.25 15.1875C11.25 16.1195 12.0055 16.875 12.9375 16.875Z" fill="currentColor"/>
<path d="M23.0625 16.875C23.9945 16.875 24.75 16.1195 24.75 15.1875C24.75 14.2555 23.9945 13.5 23.0625 13.5C22.1305 13.5 21.375 14.2555 21.375 15.1875C21.375 16.1195 22.1305 16.875 23.0625 16.875Z" fill="currentColor"/>
<path d="M23.625 21.375C22.4578 23.393 20.4989 24.75 18 24.75C15.5011 24.75 13.5422 23.393 12.375 21.375M31.5 18C31.5 25.4558 25.4558 31.5 18 31.5C10.5442 31.5 4.5 25.4558 4.5 18C4.5 10.5442 10.5442 4.5 18 4.5C25.4558 4.5 31.5 10.5442 31.5 18Z" stroke="currentColor" stroke-width="1.5" stroke-linecap="round" stroke-linejoin="round"/>
</svg>
