<svg width="20" height="20" viewBox="0 0 20 20" fill="none" xmlns="http://www.w3.org/2000/svg">
<path d="M7.5 3.75H15M5 1.875V4.02344C4.99998 5.06808 5.29086 6.09209 5.84004 6.98072C6.38923 7.86935 7.17502 8.5875 8.10938 9.05469L11.8906 10.9453C12.825 11.4125 13.6108 12.1306 14.16 13.0193C14.7091 13.9079 15 14.9319 15 15.9766V18.125M5 16.25H12.5M8.42891 6.25H14.5406M5.45937 13.75H11.5711M7.29531 11.443C6.58381 11.9655 6.00529 12.6482 5.60654 13.4358C5.20779 14.2234 5.00001 15.0938 5 15.9766V18.125M15 1.875V4.02344C14.9996 4.90582 14.7917 5.77574 14.3929 6.5629C13.9942 7.35005 13.4159 8.03236 12.7047 8.55469" stroke="white" stroke-width="1.5" stroke-linecap="round" stroke-linejoin="round"/>
</svg>
