<svg width="20" height="20" viewBox="0 0 20 20" fill="none" xmlns="http://www.w3.org/2000/svg">
<path d="M12.1875 6.9375C12.6707 6.9375 13.0625 7.32925 13.0625 7.8125C13.0625 8.29575 12.6707 8.6875 12.1875 8.6875C11.7043 8.6875 11.3125 8.29575 11.3125 7.8125C11.3125 7.32925 11.7043 6.9375 12.1875 6.9375Z" fill="white" stroke="white" stroke-width="0.125"/>
<path d="M11.5086 12.8125L13.5156 10.8078C13.6328 10.6907 13.7917 10.6249 13.9574 10.6249C14.1231 10.6249 14.282 10.6907 14.3992 10.8078L17.5 13.9109M2.5 13.1789L6.74531 8.93281C6.80336 8.8747 6.87229 8.8286 6.94816 8.79715C7.02404 8.7657 7.10537 8.74951 7.1875 8.74951C7.26963 8.74951 7.35096 8.7657 7.42684 8.79715C7.50271 8.8286 7.57164 8.8747 7.62969 8.93281L14.9461 16.25M3.125 3.75H16.875C17.2202 3.75 17.5 4.02982 17.5 4.375V15.625C17.5 15.9702 17.2202 16.25 16.875 16.25H3.125C2.77982 16.25 2.5 15.9702 2.5 15.625V4.375C2.5 4.02982 2.77982 3.75 3.125 3.75Z" stroke="white" stroke-width="1.5" stroke-linecap="round" stroke-linejoin="round"/>
</svg>
