<svg width="36" height="36" viewBox="0 0 36 36" fill="none" xmlns="http://www.w3.org/2000/svg">
<path d="M18 13.5V19.125M18 19.125L12.375 16.875M18 19.125L14.625 23.625M18 19.125L21.375 23.625M18 19.125L23.625 16.875M30.375 15.75V7.875C30.375 7.57663 30.2565 7.29048 30.0455 7.07951C29.8345 6.86853 29.5484 6.75 29.25 6.75H6.75C6.45163 6.75 6.16548 6.86853 5.95451 7.07951C5.74353 7.29048 5.625 7.57663 5.625 7.875V15.75C5.625 29.25 18 32.625 18 32.625C18 32.625 30.375 29.25 30.375 15.75Z" stroke="currentColor" stroke-width="1.5" stroke-linecap="round" stroke-linejoin="round"/>
</svg>
