<svg width="24" height="24" viewBox="0 0 24 24" fill="none" xmlns="http://www.w3.org/2000/svg">
<path d="M16.5 10.5625C17.2939 10.5625 17.9375 11.2061 17.9375 12C17.9375 12.7939 17.2939 13.4375 16.5 13.4375C15.7061 13.4375 15.0625 12.7939 15.0625 12C15.0625 11.2061 15.7061 10.5625 16.5 10.5625Z" fill="currentColor" stroke="currentColor" stroke-width="0.125"/>
<path d="M12 18C12.8284 18 13.5 17.3284 13.5 16.5C13.5 15.6716 12.8284 15 12 15C11.1716 15 10.5 15.6716 10.5 16.5C10.5 17.3284 11.1716 18 12 18Z" fill="currentColor"/>
<path d="M20.25 12C20.25 16.5563 16.5563 20.25 12 20.25M20.25 12C20.25 7.44365 16.5563 3.75 12 3.75M20.25 12H22.5M12 20.25C7.44365 20.25 3.75 16.5563 3.75 12M12 20.25V22.5M3.75 12C3.75 7.44365 7.44365 3.75 12 3.75M3.75 12H1.5M12 3.75V1.5M4.5 4.5L6.16594 6.16594M17.8341 6.16594L19.5 4.5M19.5 19.5L17.8341 17.8341M4.5 19.5L6.16594 17.8341M12 10.125C12 11.1605 11.1605 12 10.125 12C9.08947 12 8.25 11.1605 8.25 10.125C8.25 9.08947 9.08947 8.25 10.125 8.25C11.1605 8.25 12 9.08947 12 10.125Z" stroke="currentColor" stroke-width="1.5" stroke-linecap="round" stroke-linejoin="round"/>
</svg>
