<svg width="36" height="36" viewBox="0 0 36 36" fill="none" xmlns="http://www.w3.org/2000/svg">
<path d="M24.75 15.8125C25.9581 15.8125 26.9375 16.7919 26.9375 18C26.9375 19.2081 25.9581 20.1875 24.75 20.1875C23.5419 20.1875 22.5625 19.2081 22.5625 18C22.5625 16.7919 23.5419 15.8125 24.75 15.8125Z" fill="currentColor" stroke="currentColor" stroke-width="0.125"/>
<path d="M18 27C19.2426 27 20.25 25.9926 20.25 24.75C20.25 23.5074 19.2426 22.5 18 22.5C16.7574 22.5 15.75 23.5074 15.75 24.75C15.75 25.9926 16.7574 27 18 27Z" fill="currentColor"/>
<path d="M30.375 18C30.375 24.8345 24.8345 30.375 18 30.375M30.375 18C30.375 11.1655 24.8345 5.625 18 5.625M30.375 18H33.75M18 30.375C11.1655 30.375 5.625 24.8345 5.625 18M18 30.375V33.75M5.625 18C5.625 11.1655 11.1655 5.625 18 5.625M5.625 18H2.25M18 5.625V2.25M6.75 6.75L9.24891 9.24891M26.7511 9.24891L29.25 6.75M29.25 29.25L26.7511 26.7511M6.75 29.25L9.24891 26.7511M18 15.1875C18 16.7408 16.7408 18 15.1875 18C13.6342 18 12.375 16.7408 12.375 15.1875C12.375 13.6342 13.6342 12.375 15.1875 12.375C16.7408 12.375 18 13.6342 18 15.1875Z" stroke="currentColor" stroke-width="1.5" stroke-linecap="round" stroke-linejoin="round"/>
</svg>
