<svg width="36" height="36" viewBox="0 0 36 36" fill="none" xmlns="http://www.w3.org/2000/svg">
<path d="M18 18L9.45 11.5875C9.31028 11.4827 9.19688 11.3468 9.11877 11.1906C9.04066 11.0344 9 10.8622 9 10.6875V5.625C9 5.32663 9.11853 5.04048 9.32951 4.82951C9.54048 4.61853 9.82663 4.5 10.125 4.5H25.875C26.1734 4.5 26.4595 4.61853 26.6705 4.82951C26.8815 5.04048 27 5.32663 27 5.625V10.6369C26.9995 10.8103 26.9588 10.9813 26.8812 11.1365C26.8037 11.2916 26.6913 11.4267 26.5528 11.5312L18 18ZM18 18L9.45 24.4125C9.31028 24.5173 9.19688 24.6532 9.11877 24.8094C9.04066 24.9656 9 25.1378 9 25.3125V30.375C9 30.6734 9.11853 30.9595 9.32951 31.1705C9.54048 31.3815 9.82663 31.5 10.125 31.5H25.875C26.1734 31.5 26.4595 31.3815 26.6705 31.1705C26.8815 30.9595 27 30.6734 27 30.375V25.3631C26.9999 25.1892 26.9595 25.0176 26.8819 24.862C26.8043 24.7063 26.6916 24.5707 26.5528 24.4659L18 18ZM9 9H27" stroke="currentColor" stroke-width="1.5" stroke-linecap="round" stroke-linejoin="round"/>
</svg>
