<svg width="20" height="20" viewBox="0 0 20 20" fill="none" xmlns="http://www.w3.org/2000/svg">
<path d="M6.87519 2.5H13.1252M11.8752 2.5V7.74531L16.7853 15.9281C16.8423 16.0229 16.8731 16.1311 16.8745 16.2417C16.876 16.3523 16.8481 16.4613 16.7937 16.5575C16.7393 16.6538 16.6603 16.7339 16.5648 16.7897C16.4694 16.8455 16.3608 16.8749 16.2502 16.875H3.75019C3.63954 16.875 3.53087 16.8457 3.43527 16.79C3.33968 16.7343 3.26059 16.6542 3.20608 16.5579C3.15158 16.4616 3.12362 16.3525 3.12505 16.2419C3.12649 16.1312 3.15727 16.023 3.21426 15.9281L8.12519 7.74531V2.5M5.59629 11.9594C6.62988 11.7656 8.09629 11.8492 10.0002 12.8125C12.5197 14.0883 14.2775 13.8211 15.2736 13.4102" stroke="white" stroke-width="1.5" stroke-linecap="round" stroke-linejoin="round"/>
</svg>
