<svg width="36" height="36" viewBox="0 0 36 36" fill="none" xmlns="http://www.w3.org/2000/svg">
<path d="M18 31.5C15.0163 31.5 12.1548 30.3147 10.045 28.205C7.93526 26.0952 6.75 23.2337 6.75 20.25V16.875M18 31.5V28.125M18 31.5C20.9837 31.5 23.8452 30.3147 25.955 28.205C28.0647 26.0952 29.25 23.2337 29.25 20.25V16.875M6.75 16.875C9.73369 16.875 12.5952 18.0603 14.705 20.17C16.8147 22.2798 18 25.1413 18 28.125M6.75 16.875V9C9.73369 9 12.5952 10.1853 14.705 12.295C16.8147 14.4048 18 17.2663 18 20.25M18 28.125C18 26.6476 18.291 25.1847 18.8564 23.8198C19.4217 22.4549 20.2504 21.2147 21.295 20.17C22.3397 19.1254 23.5799 18.2967 24.9448 17.7314C26.3097 17.166 27.7726 16.875 29.25 16.875M18 28.125V20.25M29.25 16.875V9C26.2663 9 23.4048 10.1853 21.295 12.295C19.1853 14.4048 18 17.2663 18 20.25M11.8195 10.2052C13.4466 5.65172 18 3.375 18 3.375C18 3.375 22.5534 5.65172 24.1875 10.2066" stroke="currentColor" stroke-width="1.5" stroke-linecap="round" stroke-linejoin="round"/>
</svg>
