<svg width="36" height="36" viewBox="0 0 36 36" fill="none" xmlns="http://www.w3.org/2000/svg">
<path d="M29.2499 16.875V10.125M32.6249 13.5H25.8749M22.4999 4.5V9M24.7499 6.75H20.2499M29.6282 22.2441C28.7624 22.4144 27.8822 22.5001 26.9999 22.5C25.0046 22.4983 23.0345 22.0548 21.2311 21.2012C19.4276 20.3476 17.8356 19.1052 16.5694 17.5633C15.3031 16.0213 14.3941 14.218 13.9077 12.283C13.4212 10.3479 13.3693 8.32918 13.7558 6.37172C11.8031 7.08579 10.0617 8.28037 8.69261 9.84515C7.32347 11.4099 6.37067 13.2944 5.92218 15.3247C5.47369 17.3549 5.54398 19.4655 6.12655 21.4614C6.70912 23.4573 7.7852 25.2742 9.25541 26.7445C10.7256 28.2147 12.5426 29.2907 14.5385 29.8733C16.5344 30.4559 18.6449 30.5262 20.6752 30.0777C22.7054 29.6292 24.59 28.6764 26.1547 27.3073C27.7195 25.9381 28.9141 24.1968 29.6282 22.2441Z" stroke="currentColor" stroke-width="1.5" stroke-linecap="round" stroke-linejoin="round"/>
</svg>
