<svg width="24" height="24" viewBox="0 0 24 24" fill="none" xmlns="http://www.w3.org/2000/svg">
<path d="M19.5 11.25V6.75M21.75 9H17.25M15 3V6M16.5 4.5H13.5M19.7522 14.8294C19.1751 14.9429 18.5882 15.0001 18 15C16.6699 14.9989 15.3565 14.7032 14.1542 14.1341C12.9519 13.5651 11.8905 12.7368 11.0464 11.7088C10.2022 10.6809 9.59622 9.47868 9.27191 8.18865C8.94759 6.89863 8.91302 5.55279 9.17066 4.24781C7.86884 4.72386 6.70795 5.52025 5.79519 6.56343C4.88244 7.60661 4.24723 8.86296 3.94824 10.2165C3.64925 11.57 3.69611 12.977 4.08449 14.3076C4.47287 15.6382 5.19025 16.8495 6.1704 17.8296C7.15054 18.8098 8.36184 19.5272 9.69245 19.9155C11.0231 20.3039 12.4301 20.3508 13.7836 20.0518C15.1371 19.7528 16.3934 19.1176 17.4366 18.2048C18.4798 17.2921 19.2762 16.1312 19.7522 14.8294Z" stroke="white" stroke-width="1.5" stroke-linecap="round" stroke-linejoin="round"/>
</svg>
