<svg width="24" height="24" viewBox="0 0 24 24" fill="none" xmlns="http://www.w3.org/2000/svg">
<path d="M19.4999 11.25V6.75M21.7499 9H17.2499M14.9999 3V6M16.4999 4.5H13.4999M19.7521 14.8294C19.175 14.9429 18.5881 15.0001 17.9999 15C16.6697 14.9989 15.3563 14.7032 14.154 14.1341C12.9517 13.5651 11.8904 12.7368 11.0462 11.7088C10.2021 10.6809 9.5961 9.47868 9.27178 8.18865C8.94747 6.89863 8.9129 5.55279 9.17054 4.24781C7.86872 4.72386 6.70783 5.52025 5.79507 6.56343C4.88231 7.60661 4.24711 8.86296 3.94812 10.2165C3.64913 11.57 3.69599 12.977 4.08437 14.3076C4.47275 15.6382 5.19013 16.8495 6.17028 17.8296C7.15042 18.8098 8.36172 19.5272 9.69233 19.9155C11.0229 20.3039 12.43 20.3508 13.7835 20.0518C15.137 19.7528 16.3933 19.1176 17.4365 18.2048C18.4797 17.2921 19.2761 16.1312 19.7521 14.8294Z" stroke="currentColor" stroke-width="1.5" stroke-linecap="round" stroke-linejoin="round"/>
</svg>
