<svg width="24" height="24" viewBox="0 0 24 24" fill="none" xmlns="http://www.w3.org/2000/svg">
<path d="M9 4.5H18M6 2.25V4.82812C5.99997 6.08169 6.34903 7.31051 7.00805 8.37687C7.66708 9.44323 8.61003 10.305 9.73125 10.8656L14.2687 13.1344C15.39 13.695 16.3329 14.5568 16.9919 15.6231C17.651 16.6895 18 17.9183 18 19.1719V21.75M6 19.5H15M10.1147 7.5H17.4487M6.55125 16.5H13.8853M8.75437 13.7316C7.90057 14.3586 7.20634 15.1779 6.72784 16.123C6.24934 17.0681 6.00001 18.1125 6 19.1719V21.75M18 2.25V4.82812C17.9996 5.88699 17.75 6.93089 17.2715 7.87548C16.793 8.82007 16.099 9.63884 15.2456 10.2656" stroke="currentColor" stroke-width="1.5" stroke-linecap="round" stroke-linejoin="round"/>
</svg>
