<svg width="36" height="36" viewBox="0 0 36 36" fill="none" xmlns="http://www.w3.org/2000/svg">
<path d="M13.5 6.75H27M9 3.375V7.24219C8.99996 9.12254 9.52354 10.9658 10.5121 12.5653C11.5006 14.1648 12.915 15.4575 14.5969 16.2984L21.4031 19.7016C23.085 20.5425 24.4994 21.8352 25.4879 23.4347C26.4765 25.0342 27 26.8775 27 28.7578V32.625M9 29.25H22.5M15.172 11.25H26.1731M9.82687 24.75H20.828M13.1316 20.5973C11.8509 21.5379 10.8095 22.7668 10.0918 24.1844C9.37402 25.6021 9.00001 27.1688 9 28.7578V32.625M27 3.375V7.24219C26.9993 8.83048 26.625 10.3963 25.9073 11.8132C25.1896 13.2301 24.1486 14.4583 22.8684 15.3984" stroke="currentColor" stroke-width="1.5" stroke-linecap="round" stroke-linejoin="round"/>
</svg>
