<svg width="20" height="20" viewBox="0 0 20 20" fill="none" xmlns="http://www.w3.org/2000/svg">
<path d="M3.75 5.62511H8.75M3.75 14.3751H8.75M10.4031 5.89698L15.282 4.84854M10.9211 8.36261L15.8008 7.31417M12.218 14.5267L17.0969 13.4782M4.375 3.12511H8.125C8.47018 3.12511 8.75 3.40493 8.75 3.75011V16.2501C8.75 16.5953 8.47018 16.8751 8.125 16.8751H4.375C4.02982 16.8751 3.75 16.5953 3.75 16.2501V3.75011C3.75 3.40493 4.02982 3.12511 4.375 3.12511ZM17.0055 16.0759L13.3484 16.8571C13.2678 16.8743 13.1846 16.8753 13.1036 16.8602C13.0226 16.8451 12.9454 16.8141 12.8764 16.769C12.8074 16.7239 12.748 16.6656 12.7017 16.5975C12.6553 16.5293 12.6229 16.4527 12.6063 16.372L10.0141 4.04698C9.97919 3.88417 10.0101 3.71417 10.1002 3.5741C10.1902 3.43403 10.3319 3.33525 10.4945 3.29933L14.1516 2.51808C14.2322 2.50093 14.3154 2.49989 14.3964 2.51502C14.4774 2.53015 14.5546 2.56116 14.6236 2.60625C14.6926 2.65134 14.752 2.70963 14.7983 2.77776C14.8447 2.84589 14.8771 2.92252 14.8938 3.00323L17.4859 15.3282C17.5208 15.491 17.4899 15.661 17.3998 15.8011C17.3098 15.9412 17.1681 16.04 17.0055 16.0759Z" stroke="white" stroke-width="1.5" stroke-linecap="round" stroke-linejoin="round"/>
</svg>
