<svg width="36" height="36" viewBox="0 0 36 36" fill="none" xmlns="http://www.w3.org/2000/svg">
<path d="M18 2.25C18 2.25 29.25 10.125 29.25 20.25C29.25 23.2337 28.0647 26.0952 25.955 28.205C23.8452 30.3147 20.9837 31.5 18 31.5M18 2.25C18 2.25 6.75 10.125 6.75 20.25C6.75 23.2337 7.93526 26.0952 10.045 28.205C12.1548 30.3147 15.0163 31.5 18 31.5M18 2.25V31.5M18 18H29.0672M18 13.5H27.6511M18 22.5H29.025M18 27H27M18 9H24.8878" stroke="currentColor" stroke-width="1.5" stroke-linecap="round" stroke-linejoin="round"/>
</svg>
