<svg width="16" height="16" viewBox="0 0 16 16" fill="none" xmlns="http://www.w3.org/2000/svg">
<path d="M12.6654 6.66658V7.99992C12.6654 9.2376 12.1737 10.4246 11.2985 11.2997C10.4234 12.1749 9.23637 12.6666 7.9987 12.6666M7.9987 12.6666C6.76102 12.6666 5.57404 12.1749 4.69887 11.2997C3.8237 10.4246 3.33203 9.2376 3.33203 7.99992V6.66658M7.9987 12.6666V14.6666M7.9987 1.33325C7.46826 1.33325 6.95956 1.54397 6.58448 1.91904C6.20941 2.29411 5.9987 2.80282 5.9987 3.33325V7.99992C5.9987 8.53035 6.20941 9.03906 6.58448 9.41413C6.95956 9.7892 7.46826 9.99992 7.9987 9.99992C8.52913 9.99992 9.03784 9.7892 9.41291 9.41413C9.78798 9.03906 9.9987 8.53035 9.9987 7.99992V3.33325C9.9987 2.80282 9.78798 2.29411 9.41291 1.91904C9.03784 1.54397 8.52913 1.33325 7.9987 1.33325Z" stroke="#0A0A0A" stroke-width="1.5" stroke-linecap="round" stroke-linejoin="round"/>
</svg>
